<?xml version="1.0" standalone="no"?>
<!DOCTYPE svg PUBLIC "-//W3C//DTD SVG 20010904//EN"
 "http://www.w3.org/TR/2001/REC-SVG-20010904/DTD/svg10.dtd">
<svg version="1.0" xmlns="http://www.w3.org/2000/svg"
 width="700.000000pt" height="700.000000pt" viewBox="0 0 700.000000 700.000000"
 preserveAspectRatio="xMidYMid meet">
<metadata>
Created by potrace 1.14, written by Peter Selinger 2001-2017
</metadata>
<g transform="translate(0.000000,700.000000) scale(0.100000,-0.100000)"
fill="#000000" stroke="none">
<path d="M1658 6565 c-2 -1 -41 -6 -88 -10 -46 -3 -87 -8 -90 -10 -3 -1 -25
-6 -50 -9 -206 -28 -477 -135 -620 -244 -297 -227 -433 -519 -433 -927 0 -541
262 -844 866 -1000 70 -18 127 -32 127 -29 0 2 10 0 23 -5 13 -5 39 -12 58
-15 34 -6 162 -31 209 -41 14 -3 41 -8 60 -11 19 -3 42 -7 50 -9 8 -2 31 -7
50 -10 102 -17 316 -67 390 -90 177 -56 284 -136 313 -231 22 -70 17 -197 -9
-254 -48 -105 -198 -200 -354 -224 -19 -3 -48 -9 -65 -12 -58 -12 -271 -10
-360 4 -326 48 -489 205 -509 490 -2 41 -8 77 -11 80 -11 11 -905 8 -906 -3
-4 -47 6 -177 21 -270 66 -415 292 -732 655 -917 125 -64 367 -137 507 -154
29 -4 56 -8 59 -10 13 -7 226 -18 349 -17 173 0 271 8 455 38 11 1 52 10 90
20 460 110 784 366 919 726 61 163 81 288 80 494 -2 429 -174 720 -531 899
-151 75 -323 125 -613 180 -89 17 -138 26 -160 30 -14 2 -59 11 -100 19 -41 9
-113 23 -160 32 -233 45 -408 98 -487 148 -88 56 -115 108 -116 222 0 154 107
262 308 311 105 26 341 24 458 -4 272 -67 387 -217 397 -518 0 -8 121 -12 441
-12 l440 0 -2 107 c-6 357 -102 619 -308 835 -148 157 -374 280 -621 340 -119
28 -154 35 -220 41 -36 4 -76 9 -90 12 -27 5 -417 13 -422 8z"/>
<path d="M3678 4083 c-2 -4 -4 -849 -3 -1878 l1 -1870 954 0 c525 0 989 4
1030 8 147 16 315 60 444 116 142 62 335 225 425 359 62 92 138 253 156 329 3
10 9 36 14 58 21 86 23 104 26 231 6 238 -48 408 -193 601 -58 79 -177 194
-254 246 -26 17 -48 35 -48 38 0 4 21 24 48 45 126 101 249 257 292 371 52
140 70 316 46 463 -50 302 -260 590 -541 741 -122 66 -220 97 -425 136 -51 9
-1968 15 -1972 6z m1817 -825 c170 -50 234 -138 222 -308 -7 -112 -41 -170
-128 -218 -91 -51 -147 -56 -599 -56 l-375 -1 -2 290 c-1 160 0 295 2 301 6
19 815 11 880 -8z m-20 -1402 c78 -8 142 -24 184 -45 56 -29 131 -107 131
-136 0 -7 4 -16 9 -20 8 -4 18 -68 26 -160 1 -11 -4 -51 -12 -90 -23 -123 -89
-193 -223 -237 -62 -20 -88 -21 -522 -23 l-458 -3 0 358 0 359 43 3 c72 5 766
0 822 -6z"/>
</g>
</svg>
